<?xml version="1.0" encoding="utf-8"?>
<!-- Generator: Adobe Illustrator 16.0.0, SVG Export Plug-In . SVG Version: 6.00 Build 0)  -->
<!DOCTYPE svg PUBLIC "-//W3C//DTD SVG 1.1//EN" "http://www.w3.org/Graphics/SVG/1.1/DTD/svg11.dtd">
<svg version="1.1" id="Layer_1" xmlns="http://www.w3.org/2000/svg" xmlns:xlink="http://www.w3.org/1999/xlink" x="0px" y="0px"
	 width="60px" height="60px" viewBox="0 0 60 60" enable-background="new 0 0 60 60" xml:space="preserve">
<path fill="#34E0A1" d="M59.98,52.105c0,4.334-3.514,7.848-7.848,7.848H7.867c-4.334,0-7.848-3.514-7.848-7.848V7.894
	c0-4.334,3.514-7.848,7.848-7.848h44.266c4.334,0,7.848,3.514,7.848,7.848V52.105z"/>
<path d="M22.861,32.242c0,2.167-1.757,3.924-3.924,3.924s-3.924-1.757-3.924-3.924s1.757-3.924,3.924-3.924l0,0
	C21.104,28.318,22.861,30.075,22.861,32.242z M41.058,28.318c-2.167-0.001-3.925,1.754-3.926,3.922
	c-0.002,2.166,1.754,3.925,3.921,3.926s3.925-1.755,3.926-3.922c0-0.001,0-0.001,0-0.002C44.979,30.076,43.224,28.32,41.058,28.318z
	 M52.122,32.242c0,6.108-4.956,11.06-11.064,11.06c-2.787,0.005-5.472-1.048-7.515-2.943L30,44.212l-3.546-3.858
	c-2.042,1.899-4.729,2.953-7.518,2.948c-6.108,0-11.06-4.951-11.06-11.06c-0.004-3.112,1.308-6.081,3.609-8.174L7.867,20.13h8.043
	c8.509-5.79,19.691-5.79,28.2,0h8.022l-3.619,3.938C50.815,26.162,52.126,29.13,52.122,32.242L52.122,32.242z M26.423,32.242
	c0-4.134-3.351-7.485-7.484-7.486c-4.134,0-7.485,3.351-7.486,7.485c0,4.134,3.351,7.485,7.485,7.485l0,0
	C23.071,39.727,26.422,36.376,26.423,32.242L26.423,32.242z M38.306,21.068c-5.315-2.215-11.297-2.215-16.612,0
	C26.417,22.875,30,27.101,30,32.026C30,27.102,33.582,22.875,38.306,21.068z M48.542,32.242c0-4.134-3.351-7.485-7.484-7.485
	s-7.484,3.351-7.484,7.485s3.351,7.484,7.484,7.484C45.19,39.727,48.542,36.375,48.542,32.242z"/>
</svg>
